<?xml version="1.0"?>
<svg version="1.1" id="圖層_1" xmlns="http://www.w3.org/2000/svg" x="0" y="0" viewBox="0 0 100 100" xml:space="preserve"><path d="M45.5 8.2l-29.4 17c-2.8 1.6-4.5 4.6-4.5 7.8v34c0 3.2 1.7 6.2 4.5 7.8l29.4 17c2.8 1.6 6.2 1.6 9 0l29.4-17c2.8-1.6 4.5-4.6 4.5-7.8V33c0-3.2-1.7-6.2-4.5-7.8l-29.4-17c-2.8-1.6-6.2-1.6-9 0z" fill="#333"/><path d="M73.3 35.5c-2.3-2.3-6.1-2.3-8.4 0L44.5 55.9l-9.4-9.4c-2.3-2.3-6.1-2.3-8.4 0-1.1 1.1-1.7 2.6-1.7 4.2s.6 3.1 1.7 4.2l13.6 13.6c1.1 1.1 2.6 1.7 4.2 1.7s3.1-.6 4.2-1.7L73.2 44c1.1-1.1 1.7-2.6 1.7-4.2s-.5-3.1-1.6-4.3z" fill="#abbd81"/><metadata xmlns:d="https://loading.io/stock/"><d:name>ok</d:name><d:tags>ok,confirm,ready,positive,check,right,correct,affirmative,success,hexagon,form</d:tags><d:license>by</d:license><d:slug>c6geng</d:slug></metadata></svg>